<?xml version="1.0" standalone="no"?>
<!DOCTYPE svg PUBLIC "-//W3C//DTD SVG 20010904//EN"
 "http://www.w3.org/TR/2001/REC-SVG-20010904/DTD/svg10.dtd">
<svg version="1.0" xmlns="http://www.w3.org/2000/svg"
 width="225.000000pt" height="225.000000pt" viewBox="0 0 225.000000 225.000000"
 preserveAspectRatio="xMidYMid meet">
<metadata>
Created by potrace 1.11, written by Peter Selinger 2001-2013
</metadata>
<g transform="translate(0.000000,225.000000) scale(0.100000,-0.100000)"
fill="#000000" stroke="none">
<path d="M935 2234 c-403 -67 -755 -374 -884 -770 -42 -131 -53 -211 -42 -334
5 -61 5 -112 0 -122 -18 -34 41 -259 97 -371 79 -158 226 -331 364 -429 265
-188 613 -253 925 -174 119 31 293 114 391 188 135 101 276 271 334 403 13 28
26 57 30 66 5 9 5 21 0 28 -4 8 -9 2 -13 -18 -4 -17 -11 -31 -17 -31 -7 0 -9
9 -5 23 7 22 7 22 -8 2 -10 -12 -12 -24 -6 -29 15 -16 10 -29 -6 -16 -12 10
-15 10 -15 -2 0 -8 -18 -23 -40 -34 -28 -13 -39 -24 -36 -36 2 -11 -1 -15 -10
-11 -7 2 -28 -6 -46 -19 -50 -35 -71 -48 -90 -54 -10 -4 -18 -10 -18 -13 0
-12 -98 -31 -160 -31 -65 0 -160 19 -160 32 0 4 -8 8 -17 8 -10 0 -29 9 -43
20 -14 11 -30 20 -37 20 -15 0 -74 50 -69 58 2 4 -7 8 -20 8 -23 2 -24 1 -7
-12 10 -7 13 -14 6 -14 -6 0 -15 5 -18 10 -3 6 -13 10 -21 10 -8 0 -13 -3 -11
-7 5 -9 -2 -9 -138 -17 l-90 -4 85 8 c47 4 104 15 128 24 118 43 221 154 265
287 4 12 21 16 74 18 203 6 506 47 584 78 l39 15 0 93 c0 58 4 96 11 101 28
17 -28 266 -90 399 -219 468 -716 734 -1216 649z m289 -1028 c48 -20 107 -75
127 -121 20 -43 25 -115 9 -115 -5 0 -10 5 -10 11 0 8 -4 8 -14 0 -10 -9 -16
-7 -26 5 -12 14 -15 13 -26 -7 l-12 -22 -7 22 c-4 13 -12 20 -20 17 -8 -3 -19
2 -25 10 -7 8 -18 14 -25 14 -13 0 -42 58 -37 74 5 14 -20 26 -58 27 -29 0
-31 2 -15 9 11 5 34 9 50 9 21 1 26 4 16 10 -10 7 -11 13 -2 30 11 20 10 21
-41 21 -38 0 -49 3 -38 10 22 14 116 12 154 -4z m-576 -313 c-10 -2 -26 -2
-35 0 -10 3 -2 5 17 5 19 0 27 -2 18 -5z m177 -203 c10 -11 16 -20 13 -20 -3
0 -13 9 -23 20 -10 11 -16 20 -13 20 3 0 13 -9 23 -20z m120 -88 c-3 -3 -11 0
-18 7 -9 10 -8 11 6 5 10 -3 15 -9 12 -12z m62 -18 c-3 -3 -12 -4 -19 -1 -8 3
-5 6 6 6 11 1 17 -2 13 -5z"/>
</g>
</svg>
